<?xml version="1.0" standalone="no"?>
<!DOCTYPE svg PUBLIC "-//W3C//DTD SVG 20010904//EN"
 "http://www.w3.org/TR/2001/REC-SVG-20010904/DTD/svg10.dtd">
<svg version="1.0" xmlns="http://www.w3.org/2000/svg"
 width="512.000000pt" height="512.000000pt" viewBox="0 0 512.000000 512.000000"
 preserveAspectRatio="xMidYMid meet">
<metadata>
Created by potrace 1.14, written by Peter Selinger 2001-2017
</metadata>
<g transform="translate(0.000000,512.000000) scale(0.100000,-0.100000)"
fill="#000000" stroke="none">
<path d="M0 2560 l0 -2560 2560 0 2560 0 0 2560 0 2560 -2560 0 -2560 0 0
-2560z m2477 1458 c16 -15 23 -33 23 -60 0 -30 -166 -837 -186 -900 -5 -17 16
-18 340 -18 190 0 346 3 346 8 0 4 44 214 99 466 l98 460 37 33 36 33 469 0
470 0 20 -26 c12 -15 21 -38 21 -53 0 -14 -133 -649 -296 -1410 -213 -999
-301 -1393 -315 -1412 -11 -15 -33 -33 -49 -41 -17 -7 -30 -16 -30 -20 0 -5
-201 -8 -446 -8 l-447 0 -28 30 c-16 16 -31 40 -34 52 -4 18 167 860 191 941
5 16 -16 17 -340 17 -190 0 -346 -3 -346 -7 0 -18 -193 -912 -202 -936 -6 -15
-25 -39 -42 -52 -17 -14 -36 -30 -43 -35 -17 -14 -903 -14 -903 0 0 6 -6 10
-14 10 -23 0 -46 41 -46 82 0 27 538 2580 585 2777 4 13 21 39 40 58 l33 33
468 0 c466 0 468 0 491 -22z"/>
</g>
</svg>
